HIERARCHY
ROOT mixamorig:Hips
{
	OFFSET -0.000008 104.274872 1.554316
	CHANNELS 6 Xposition Yposition Zposition Xrotation Yrotation Zrotation
	JOINT mixamorig:Spine
	{
		OFFSET -0.000005 10.181595 0.131519
		CHANNELS 6 Xposition Yposition Zposition Xrotation Yrotation Zrotation
		JOINT mixamorig:Spine1
		{
			OFFSET -0.000000 9.893959 -1.470707
			CHANNELS 6 Xposition Yposition Zposition Xrotation Yrotation Zrotation
			JOINT mixamorig:Spine2
			{
				OFFSET -0.000000 9.220757 -1.370641
				CHANNELS 6 Xposition Yposition Zposition Xrotation Yrotation Zrotation
				JOINT mixamorig:Neck
				{
					OFFSET 0.000001 16.740417 -2.049036
					CHANNELS 6 Xposition Yposition Zposition Xrotation Yrotation Zrotation
					JOINT mixamorig:Head
					{
						OFFSET 0.000000 9.617874 1.685006
						CHANNELS 6 Xposition Yposition Zposition Xrotation Yrotation Zrotation
						JOINT mixamorig:HeadTop_End
						{
							OFFSET 0.000002 22.037354 7.501101
							CHANNELS 6 Xposition Yposition Zposition Xrotation Yrotation Zrotation
							End Site
							{
								OFFSET 0.000168 2310.654297 -282.823242
							}
						}
					}
				}
				JOINT mixamorig:RightShoulder
				{
					OFFSET -4.569970 11.014908 -2.160885
					CHANNELS 6 Xposition Yposition Zposition Xrotation Yrotation Zrotation
					JOINT mixamorig:RightArm
					{
						OFFSET -10.592851 -0.524811 -2.232101
						CHANNELS 6 Xposition Yposition Zposition Xrotation Yrotation Zrotation
						JOINT mixamorig:RightForeArm
						{
							OFFSET -27.841511 0.000031 -0.000004
							CHANNELS 6 Xposition Yposition Zposition Xrotation Yrotation Zrotation
							JOINT mixamorig:RightHand
							{
								OFFSET -28.328831 -0.000015 0.000015
								CHANNELS 6 Xposition Yposition Zposition Xrotation Yrotation Zrotation
								JOINT mixamorig:RightHandThumb1
								{
									OFFSET -2.464806 -1.573990 2.681852
									CHANNELS 6 Xposition Yposition Zposition Xrotation Yrotation Zrotation
									JOINT mixamorig:RightHandThumb2
									{
										OFFSET -3.215179 -1.872803 1.924282
										CHANNELS 6 Xposition Yposition Zposition Xrotation Yrotation Zrotation
										JOINT mixamorig:RightHandThumb3
										{
											OFFSET -2.654831 -1.527969 1.512609
											CHANNELS 6 Xposition Yposition Zposition Xrotation Yrotation Zrotation
											JOINT mixamorig:RightHandThumb4
											{
												OFFSET -2.018814 -1.152008 1.108052
												CHANNELS 6 Xposition Yposition Zposition Xrotation Yrotation Zrotation
												End Site
												{
													OFFSET -188.809540 -114.533607 132.431396
												}
											}
										}
									}
								}
								JOINT mixamorig:RightHandIndex1
								{
									OFFSET -9.108284 -0.517868 2.259835
									CHANNELS 6 Xposition Yposition Zposition Xrotation Yrotation Zrotation
									JOINT mixamorig:RightHandIndex2
									{
										OFFSET -3.699989 0.000000 0.001215
										CHANNELS 6 Xposition Yposition Zposition Xrotation Yrotation Zrotation
										JOINT mixamorig:RightHandIndex3
										{
											OFFSET -2.850006 0.000031 -0.000522
											CHANNELS 6 Xposition Yposition Zposition Xrotation Yrotation Zrotation
											JOINT mixamorig:RightHandIndex4
											{
												OFFSET -2.772186 -0.000015 -0.000020
												CHANNELS 6 Xposition Yposition Zposition Xrotation Yrotation Zrotation
												End Site
												{
													OFFSET -277.218445 0.000000 -0.050231
												}
											}
										}
									}
								}
								JOINT mixamorig:RightHandMiddle1
								{
									OFFSET -9.532516 -0.000031 -0.000023
									CHANNELS 6 Xposition Yposition Zposition Xrotation Yrotation Zrotation
									JOINT mixamorig:RightHandMiddle2
									{
										OFFSET -3.700005 -0.000015 0.003713
										CHANNELS 6 Xposition Yposition Zposition Xrotation Yrotation Zrotation
										JOINT mixamorig:RightHandMiddle3
										{
											OFFSET -2.949974 0.000015 -0.002054
											CHANNELS 6 Xposition Yposition Zposition Xrotation Yrotation Zrotation
											JOINT mixamorig:RightHandMiddle4
											{
												OFFSET -2.946640 0.000000 -0.000156
												CHANNELS 6 Xposition Yposition Zposition Xrotation Yrotation Zrotation
												End Site
												{
													OFFSET -294.664337 0.000000 -0.113670
												}
											}
										}
									}
								}
								JOINT mixamorig:RightHandRing1
								{
									OFFSET -9.103600 -0.043076 -1.865134
									CHANNELS 6 Xposition Yposition Zposition Xrotation Yrotation Zrotation
									JOINT mixamorig:RightHandRing2
									{
										OFFSET -3.379288 0.000000 -0.001055
										CHANNELS 6 Xposition Yposition Zposition Xrotation Yrotation Zrotation
										JOINT mixamorig:RightHandRing3
										{
											OFFSET -2.889687 -0.000015 0.000379
											CHANNELS 6 Xposition Yposition Zposition Xrotation Yrotation Zrotation
											JOINT mixamorig:RightHandRing4
											{
												OFFSET -2.638809 -0.000015 0.000941
												CHANNELS 6 Xposition Yposition Zposition Xrotation Yrotation Zrotation
												End Site
												{
													OFFSET -263.880371 0.000000 0.516020
												}
											}
										}
									}
								}
								JOINT mixamorig:RightHandPinky1
								{
									OFFSET -8.076683 -0.486710 -3.806280
									CHANNELS 6 Xposition Yposition Zposition Xrotation Yrotation Zrotation
									JOINT mixamorig:RightHandPinky2
									{
										OFFSET -3.600014 -0.000015 -0.003747
										CHANNELS 6 Xposition Yposition Zposition Xrotation Yrotation Zrotation
										JOINT mixamorig:RightHandPinky3
										{
											OFFSET -2.099983 0.000000 -0.005739
											CHANNELS 6 Xposition Yposition Zposition Xrotation Yrotation Zrotation
											JOINT mixamorig:RightHandPinky4
											{
												OFFSET -2.115768 -0.000031 -0.003680
												CHANNELS 6 Xposition Yposition Zposition Xrotation Yrotation Zrotation
												End Site
												{
													OFFSET -211.577087 0.000000 -0.350686
												}
											}
										}
									}
								}
							}
						}
					}
				}
				JOINT mixamorig:LeftShoulder
				{
					OFFSET 4.570447 11.014725 -2.160855
					CHANNELS 6 Xposition Yposition Zposition Xrotation Yrotation Zrotation
					JOINT mixamorig:LeftArm
					{
						OFFSET 10.592371 -0.524597 -2.232119
						CHANNELS 6 Xposition Yposition Zposition Xrotation Yrotation Zrotation
						JOINT mixamorig:LeftForeArm
						{
							OFFSET 27.841532 -0.000031 0.000026
							CHANNELS 6 Xposition Yposition Zposition Xrotation Yrotation Zrotation
							JOINT mixamorig:LeftHand
							{
								OFFSET 28.328846 -0.000061 0.000022
								CHANNELS 6 Xposition Yposition Zposition Xrotation Yrotation Zrotation
								JOINT mixamorig:LeftHandThumb1
								{
									OFFSET 2.466141 -1.576172 2.681732
									CHANNELS 6 Xposition Yposition Zposition Xrotation Yrotation Zrotation
									JOINT mixamorig:LeftHandThumb2
									{
										OFFSET 3.217812 -1.872070 1.916482
										CHANNELS 6 Xposition Yposition Zposition Xrotation Yrotation Zrotation
										JOINT mixamorig:LeftHandThumb3
										{
											OFFSET 2.656029 -1.528778 1.514513
											CHANNELS 6 Xposition Yposition Zposition Xrotation Yrotation Zrotation
											JOINT mixamorig:LeftHandThumb4
											{
												OFFSET 2.020889 -1.154053 1.115139
												CHANNELS 6 Xposition Yposition Zposition Xrotation Yrotation Zrotation
												End Site
												{
													OFFSET 190.885437 -115.081749 130.048782
												}
											}
										}
									}
								}
								JOINT mixamorig:LeftHandIndex1
								{
									OFFSET 9.109314 -0.518021 2.259871
									CHANNELS 6 Xposition Yposition Zposition Xrotation Yrotation Zrotation
									JOINT mixamorig:LeftHandIndex2
									{
										OFFSET 3.699989 0.000000 -0.000322
										CHANNELS 6 Xposition Yposition Zposition Xrotation Yrotation Zrotation
										JOINT mixamorig:LeftHandIndex3
										{
											OFFSET 2.850006 0.000000 0.000352
											CHANNELS 6 Xposition Yposition Zposition Xrotation Yrotation Zrotation
											JOINT mixamorig:LeftHandIndex4
											{
												OFFSET 2.774864 -0.000031 -0.000027
												CHANNELS 6 Xposition Yposition Zposition Xrotation Yrotation Zrotation
												End Site
												{
													OFFSET 277.486267 0.000000 -0.009857
												}
											}
										}
									}
								}
								JOINT mixamorig:LeftHandMiddle1
								{
									OFFSET 9.533394 0.000061 0.000044
									CHANNELS 6 Xposition Yposition Zposition Xrotation Yrotation Zrotation
									JOINT mixamorig:LeftHandMiddle2
									{
										OFFSET 3.699989 -0.000015 -0.000231
										CHANNELS 6 Xposition Yposition Zposition Xrotation Yrotation Zrotation
										JOINT mixamorig:LeftHandMiddle3
										{
											OFFSET 2.949997 -0.000015 -0.000059
											CHANNELS 6 Xposition Yposition Zposition Xrotation Yrotation Zrotation
											JOINT mixamorig:LeftHandMiddle4
											{
												OFFSET 2.952896 0.000031 0.000063
												CHANNELS 6 Xposition Yposition Zposition Xrotation Yrotation Zrotation
												End Site
												{
													OFFSET 295.289337 0.000000 0.022810
												}
											}
										}
									}
								}
								JOINT mixamorig:LeftHandRing1
								{
									OFFSET 9.104523 -0.042999 -1.865074
									CHANNELS 6 Xposition Yposition Zposition Xrotation Yrotation Zrotation
									JOINT mixamorig:LeftHandRing2
									{
										OFFSET 3.150009 -0.000031 0.000043
										CHANNELS 6 Xposition Yposition Zposition Xrotation Yrotation Zrotation
										JOINT mixamorig:LeftHandRing3
										{
											OFFSET 2.949982 -0.000015 0.000040
											CHANNELS 6 Xposition Yposition Zposition Xrotation Yrotation Zrotation
											JOINT mixamorig:LeftHandRing4
											{
												OFFSET 2.644348 0.000000 0.000057
												CHANNELS 6 Xposition Yposition Zposition Xrotation Yrotation Zrotation
												End Site
												{
													OFFSET 264.434631 0.000000 0.012105
												}
											}
										}
									}
								}
								JOINT mixamorig:LeftHandPinky1
								{
									OFFSET 8.077789 -0.486847 -3.806259
									CHANNELS 6 Xposition Yposition Zposition Xrotation Yrotation Zrotation
									JOINT mixamorig:LeftHandPinky2
									{
										OFFSET 3.599953 0.000031 0.014727
										CHANNELS 6 Xposition Yposition Zposition Xrotation Yrotation Zrotation
										JOINT mixamorig:LeftHandPinky3
										{
											OFFSET 2.100021 0.000015 0.007705
											CHANNELS 6 Xposition Yposition Zposition Xrotation Yrotation Zrotation
											JOINT mixamorig:LeftHandPinky4
											{
												OFFSET 2.125504 0.000031 0.007517
												CHANNELS 6 Xposition Yposition Zposition Xrotation Yrotation Zrotation
												End Site
												{
													OFFSET 212.550781 0.000000 0.625752
												}
											}
										}
									}
								}
							}
						}
					}
				}
			}
		}
	}
	JOINT mixamorig:RightUpLeg
	{
		OFFSET -8.207787 -6.751648 -1.599560
		CHANNELS 6 Xposition Yposition Zposition Xrotation Yrotation Zrotation
		JOINT mixamorig:RightLeg
		{
			OFFSET -0.000002 -44.370117 0.345942
			CHANNELS 6 Xposition Yposition Zposition Xrotation Yrotation Zrotation
			JOINT mixamorig:RightFoot
			{
				OFFSET 0.000003 -44.423679 -3.043532
				CHANNELS 6 Xposition Yposition Zposition Xrotation Yrotation Zrotation
				JOINT mixamorig:RightToeBase
				{
					OFFSET -0.000002 -8.728671 10.710558
					CHANNELS 6 Xposition Yposition Zposition Xrotation Yrotation Zrotation
					JOINT mixamorig:RightToe_End
					{
						OFFSET -0.000001 -0.000679 9.278119
						CHANNELS 6 Xposition Yposition Zposition Xrotation Yrotation Zrotation
						End Site
						{
							OFFSET 0.000000 -0.067690 927.812134
						}
					}
				}
			}
		}
	}
	JOINT mixamorig:LeftUpLeg
	{
		OFFSET 8.207793 -6.751686 -1.599556
		CHANNELS 6 Xposition Yposition Zposition Xrotation Yrotation Zrotation
		JOINT mixamorig:LeftLeg
		{
			OFFSET -0.000004 -44.370014 0.346954
			CHANNELS 6 Xposition Yposition Zposition Xrotation Yrotation Zrotation
			JOINT mixamorig:LeftFoot
			{
				OFFSET -0.000001 -44.423672 -3.044401
				CHANNELS 6 Xposition Yposition Zposition Xrotation Yrotation Zrotation
				JOINT mixamorig:LeftToeBase
				{
					OFFSET -0.000002 -8.728669 10.710558
					CHANNELS 6 Xposition Yposition Zposition Xrotation Yrotation Zrotation
					JOINT mixamorig:LeftToe_End
					{
						OFFSET -0.000003 -0.000679 9.278133
						CHANNELS 6 Xposition Yposition Zposition Xrotation Yrotation Zrotation
						End Site
						{
							OFFSET 0.000000 -0.068021 927.813477
						}
					}
				}
			}
		}
	}
}
MOTION
Frames: 3
Frame Time: 0.033333
0.000006 104.270477 1.554256 0.000010 0.000003 -0.000113 -0.000005 10.181587 0.131522 0.000001 -0.000003 0.000084 -0.000000 9.893967 -1.470711 0.000001 0.000000 -0.000000 -0.000000 9.220802 -1.370642 0.000000 -0.000000 -0.000000 0.000001 16.740433 -2.049030 0.000000 -0.000000 -0.000000 0.000000 9.617859 1.685014 0.000000 0.000000 0.000000 0.000002 22.037384 7.501101 0.000000 -0.000000 0.000000 -4.569968 11.014880 -2.160881 0.000008 0.000001 -0.000038 -10.592776 -0.524842 -2.231745 76.403329 66.568499 -54.644741 -27.841478 0.000020 0.000588 32.731779 104.505132 -41.544878 -28.328833 0.000020 0.000032 -0.000322 -0.000044 0.000006 -2.464510 -1.574182 2.682172 58.015825 -127.585079 114.545565 -3.214790 -1.872904 1.924761 183.981322 -40.677868 246.269437 -2.654447 -1.527907 1.513109 144.164161 -22.891348 187.693680 -2.018826 -1.151997 1.108067 -0.000005 0.000005 0.000002 -9.108321 -0.517801 2.260389 160.791969 14.646335 -74.681971 -3.700058 0.000262 0.001682 133.440532 9.361147 -21.494986 -2.850025 0.000407 -0.000211 112.719766 1.471999 -2.210814 -2.772160 -0.000007 -0.000017 -0.000004 -0.000002 0.000002 -9.532561 0.000055 0.000500 157.496963 9.785387 -47.267238 -3.699808 0.000422 0.004067 133.494476 -21.311503 47.364442 -2.949771 0.000295 -0.002016 240.621335 -144.231165 201.366640 -2.946622 -0.000005 -0.000158 0.000002 0.000001 -0.000001 -9.103647 -0.042878 -1.864604 160.005077 5.258491 -28.962000 -3.378780 0.000153 -0.000871 135.995678 -63.505289 113.731700 -2.889426 -0.000028 0.000345 175.378808 -129.371392 177.833879 -2.638813 0.000002 0.000941 0.000002 -0.000003 -0.000002 -8.076668 -0.486444 -3.805764 162.408525 -0.042956 1.052259 -3.599533 -0.000108 -0.003423 189.608073 -52.823962 198.516347 -2.099668 -0.000171 -0.005707 306.699727 -52.798117 -28.165074 -2.115768 -0.000055 -0.003680 0.000003 0.000000 -0.000006 4.570446 11.014691 -2.160851 -0.000018 0.000010 -0.000021 10.592467 -0.524589 -2.232333 14.209786 -68.832372 9.762148 27.841797 -0.000043 -0.000116 23.103665 -104.444425 29.546903 28.328833 -0.000028 0.000017 0.000021 -0.000089 -0.000000 2.466153 -1.576151 2.681888 36.851251 127.690701 -95.716113 3.217672 -1.872058 1.916561 -16.539291 136.414792 -35.874783 2.655864 -1.528816 1.514607 -17.390041 140.742482 -34.717691 2.020891 -1.154086 1.115159 -0.000001 0.000001 0.000002 9.109431 -0.517763 2.259803 134.186115 -14.803742 34.149665 3.700099 0.000233 -0.000378 131.008219 -15.607877 33.519918 2.850098 0.000275 0.000255 127.798508 -14.223564 28.572805 2.774887 -0.000046 -0.000021 -0.000001 0.000000 0.000000 9.533480 0.000277 -0.000075 109.885661 -15.427080 21.837993 3.700006 -0.000010 -0.000222 -2.485439 -6.793475 -0.147632 2.950019 0.000008 0.000115 -49.384566 -2.296043 -1.056868 2.952872 -0.000043 0.000074 0.000003 0.000003 0.000001 9.104616 -0.042756 -1.865201 109.442628 -13.673270 19.238867 3.149992 0.000007 0.000053 -23.321415 32.809804 6.953120 2.949999 0.000031 0.000185 -63.367729 16.787526 10.406521 2.644324 0.000050 0.000056 0.000000 -0.000000 0.000000 8.077862 -0.486611 -3.806398 111.504361 -12.688051 19.377878 3.599955 0.000012 0.014779 -27.687500 26.215924 6.366818 2.100026 0.000056 0.007864 -62.062049 18.072855 10.608472 2.125507 -0.000033 0.007517 0.000000 0.000001 0.000005 -8.207786 -6.751667 -1.599560 -0.077001 -0.000003 0.000080 -0.000002 -44.370110 0.345938 0.153719 -0.000000 -0.000000 0.000000 -44.423679 -3.043532 -0.076700 0.000000 -0.000002 -0.000006 -8.728667 10.710559 -0.000009 -0.000000 -0.000000 -0.000001 -0.000679 9.278123 0.000000 -0.000000 -0.000000 8.207792 -6.751710 -1.599556 -0.074518 -0.000003 0.000081 -0.000002 -44.370014 0.346960 0.148822 0.000002 0.000000 -0.000001 -44.423664 -3.044403 -0.074314 0.000000 -0.000002 -0.000004 -8.728671 10.710558 0.000007 -0.000000 -0.000000 0.000000 -0.000680 9.278137 -0.000000 0.000000 -0.000001 
0.000006 104.270477 1.554256 0.000010 0.000003 -0.000113 -0.000005 10.181587 0.131522 0.000001 -0.000003 0.000084 -0.000000 9.893967 -1.470711 0.000001 0.000000 -0.000000 -0.000000 9.220802 -1.370642 0.000000 -0.000000 -0.000000 0.000001 16.740433 -2.049030 0.000000 -0.000000 -0.000000 0.000000 9.617859 1.685014 0.000000 0.000000 0.000000 0.000002 22.037384 7.501101 0.000000 -0.000000 0.000000 -4.569968 11.014880 -2.160881 0.000008 0.000001 -0.000038 -10.592772 -0.524842 -2.231747 77.169096 66.667632 -55.377637 -27.841486 -0.000003 0.000582 33.899930 104.739339 -43.140424 -28.328835 0.000021 0.000009 -0.000321 -0.000044 0.000007 -2.464486 -1.574180 2.682211 52.967612 -126.249954 109.542287 -3.214770 -1.872913 1.924752 178.734781 -40.477282 239.574622 -2.654436 -1.527819 1.513113 139.234431 -18.337178 177.392580 -2.018826 -1.152000 1.108066 -0.000004 -0.000001 0.000002 -9.108293 -0.517849 2.260393 162.309337 16.241912 -85.290539 -3.700068 0.000246 0.001692 137.632861 10.996123 -27.835927 -2.850060 0.000376 -0.000143 122.120572 5.547547 -10.013618 -2.772177 -0.000015 -0.000019 0.000003 0.000000 0.000002 -9.532549 0.000083 0.000506 156.031164 10.652892 -48.083265 -3.699895 0.000393 0.004097 135.871724 -12.160022 29.573087 -2.949839 0.000390 -0.001815 282.429524 -159.444551 205.435548 -2.946638 -0.000001 -0.000153 0.000002 -0.000003 -0.000001 -9.103658 -0.042883 -1.864594 157.994706 6.174242 -30.788030 -3.378825 0.000256 -0.000834 132.641481 -53.853900 98.394824 -2.889400 0.000008 0.000352 178.855060 -125.410524 179.430586 -2.638808 0.000002 0.000938 -0.000003 -0.000004 -0.000000 -8.076668 -0.486478 -3.805737 160.915418 0.679444 -3.300272 -3.599517 -0.000093 -0.003436 189.403782 -59.103956 195.912734 -2.099706 -0.000173 -0.005725 314.894588 -46.194031 -20.250001 -2.115758 -0.000056 -0.003682 0.000001 -0.000000 -0.000004 4.570446 11.014691 -2.160851 -0.000018 0.000010 -0.000021 10.592468 -0.524590 -2.232337 20.967653 -66.682768 13.882677 27.841805 -0.000043 -0.000137 13.445282 -103.714005 17.072587 28.328840 -0.000028 0.000024 0.000020 -0.000090 -0.000000 2.466145 -1.576171 2.681878 25.089774 127.079330 -83.664141 3.217557 -1.872015 1.916559 -43.975886 152.923960 7.006747 2.655701 -1.528712 1.514611 -51.208350 168.131923 29.806648 2.020906 -1.154061 1.115142 0.000002 0.000004 0.000002 9.109378 -0.517735 2.259755 120.989670 -9.515751 16.713748 3.700079 0.000267 -0.000409 121.706594 -10.913905 19.471377 2.850068 0.000290 0.000271 120.845075 -11.431566 20.000759 2.774879 -0.000046 -0.000029 0.000000 -0.000000 -0.000000 9.533471 0.000295 -0.000074 107.737287 -11.684408 15.945092 3.699996 0.000028 -0.000062 -40.005234 -4.568063 -1.662930 2.950015 0.000061 0.000138 -61.362802 -1.600925 -0.951310 2.952870 -0.000011 0.000067 0.000000 0.000001 -0.000002 9.104584 -0.042754 -1.865222 111.305473 -10.881999 15.872685 3.149999 0.000015 0.000113 -48.781139 30.193340 13.945782 2.950002 0.000044 0.000190 -62.728512 15.417221 9.432104 2.644330 0.000048 0.000057 -0.000001 0.000001 -0.000002 8.077845 -0.486572 -3.806390 116.969722 -9.883977 16.950650 3.599977 0.000023 0.014849 -52.660537 24.515741 11.964979 2.100017 0.000050 0.007864 -60.792993 17.877100 10.228721 2.125514 0.000001 0.007517 -0.000000 0.000002 -0.000001 -8.207786 -6.751667 -1.599560 -0.077001 -0.000003 0.000080 -0.000002 -44.370110 0.345938 0.153719 -0.000000 -0.000000 0.000000 -44.423679 -3.043532 -0.076700 0.000000 -0.000002 -0.000006 -8.728667 10.710559 -0.000009 -0.000000 -0.000000 -0.000001 -0.000679 9.278123 0.000000 -0.000000 -0.000000 8.207792 -6.751710 -1.599556 -0.074518 -0.000003 0.000081 -0.000002 -44.370014 0.346960 0.148822 0.000002 0.000000 -0.000001 -44.423664 -3.044403 -0.074314 0.000000 -0.000002 -0.000004 -8.728671 10.710558 0.000007 -0.000000 -0.000000 0.000000 -0.000680 9.278137 -0.000000 0.000000 -0.000001 
0.000006 104.270477 1.554256 0.000010 0.000003 -0.000113 -0.000005 10.181587 0.131522 0.000001 -0.000003 0.000084 -0.000000 9.893967 -1.470711 0.000001 0.000000 -0.000000 -0.000000 9.220802 -1.370642 0.000000 -0.000000 -0.000000 0.000001 16.740433 -2.049030 0.000000 -0.000000 -0.000000 0.000000 9.617859 1.685014 0.000000 0.000000 0.000000 0.000002 22.037384 7.501101 0.000000 -0.000000 0.000000 -4.569968 11.014880 -2.160881 0.000008 0.000001 -0.000038 -10.592785 -0.524846 -2.231753 77.184710 63.068662 -52.183547 -27.841473 0.000022 0.000587 25.186615 104.609320 -32.249117 -28.328835 0.000007 0.000025 -0.000321 -0.000044 0.000006 -2.464495 -1.574185 2.682253 42.616579 -128.673374 101.882018 -3.214777 -1.872883 1.924765 173.857848 -37.997053 234.670929 -2.654527 -1.527694 1.513052 130.165333 1.635132 147.079204 -2.018831 -1.151998 1.108058 -0.000002 0.000001 0.000004 -9.108358 -0.517767 2.260361 152.690504 17.154319 -63.851136 -3.700066 0.000217 0.001690 133.859045 13.965881 -32.030425 -2.850099 0.000310 -0.000103 129.194968 12.342896 -25.652717 -2.772168 -0.000004 -0.000022 -0.000000 0.000001 0.000005 -9.532554 0.000111 0.000505 152.486022 12.393079 -48.404939 -3.699935 0.000403 0.004090 129.815573 -7.738085 16.572889 -2.949906 0.000386 -0.001905 267.910318 -163.917806 195.517184 -2.946624 0.000001 -0.000158 0.000001 0.000006 -0.000001 -9.103675 -0.042926 -1.864612 153.684543 8.801062 -36.257499 -3.378874 0.000305 -0.000810 130.657749 -46.573650 86.279277 -2.889495 -0.000109 0.000361 157.739544 -139.561815 171.733577 -2.638807 -0.000019 0.000941 -0.000002 -0.000000 0.000002 -8.076692 -0.486510 -3.805746 155.195558 4.397764 -19.181628 -3.599527 -0.000091 -0.003462 187.206387 -59.326012 192.035058 -2.099847 -0.000162 -0.005704 319.998816 -26.546836 -9.936638 -2.115752 -0.000021 -0.003688 0.000001 -0.000000 -0.000004 4.570446 11.014691 -2.160851 -0.000018 0.000010 -0.000021 10.592476 -0.524563 -2.232349 30.373049 -65.998205 19.993763 27.841808 -0.000047 -0.000137 10.501681 -103.705310 13.347500 28.328825 -0.000029 0.000022 0.000020 -0.000090 -0.000000 2.466177 -1.576163 2.681882 26.128551 131.898343 -88.068022 3.217552 -1.872032 1.916547 -38.774226 149.144789 -3.032210 2.655700 -1.528712 1.514613 -48.758156 163.373972 21.978693 2.020891 -1.154081 1.115142 0.000005 0.000003 0.000002 9.109381 -0.517741 2.259776 122.074182 -10.223598 18.341240 3.700060 0.000255 -0.000422 122.047394 -10.017447 18.016398 2.850073 0.000287 0.000238 116.974667 -10.111073 16.419093 2.774880 -0.000046 -0.000032 -0.000000 0.000001 -0.000000 9.533482 0.000268 -0.000072 115.142947 -13.835457 21.609682 3.700008 0.000038 -0.000032 -53.639747 -7.766664 -3.930160 2.950021 0.000037 0.000153 -59.421259 0.875858 0.498370 2.952856 -0.000002 0.000067 -0.000001 -0.000001 0.000001 9.104609 -0.042748 -1.865202 119.503244 -12.079447 20.570846 3.150010 0.000020 0.000091 -58.163282 30.720890 17.371949 2.949996 0.000020 0.000176 -59.258892 17.082532 9.763642 2.644327 0.000033 0.000057 -0.000000 -0.000003 -0.000000 8.077864 -0.486598 -3.806361 126.083817 -10.272996 21.140771 3.599984 0.000049 0.014873 -59.526881 26.708311 15.108119 2.100014 0.000036 0.007838 -58.437350 18.687871 10.211332 2.125503 -0.000032 0.007516 0.000001 -0.000001 0.000000 -8.207786 -6.751667 -1.599560 -0.077001 -0.000003 0.000080 -0.000002 -44.370110 0.345938 0.153719 -0.000000 -0.000000 0.000000 -44.423679 -3.043532 -0.076700 0.000000 -0.000002 -0.000006 -8.728667 10.710559 -0.000009 -0.000000 -0.000000 -0.000001 -0.000679 9.278123 0.000000 -0.000000 -0.000000 8.207792 -6.751710 -1.599556 -0.074518 -0.000003 0.000081 -0.000002 -44.370014 0.346960 0.148822 0.000002 0.000000 -0.000001 -44.423664 -3.044403 -0.074314 0.000000 -0.000002 -0.000004 -8.728671 10.710558 0.000007 -0.000000 -0.000000 0.000000 -0.000680 9.278137 -0.000000 0.000000 -0.000001 
